<svg id="SvgjsSvg1011" width="288" height="288" xmlns="http://www.w3.org/2000/svg" version="1.1" xmlns:xlink="http://www.w3.org/1999/xlink" xmlns:svgjs="http://svgjs.com/svgjs"><defs id="SvgjsDefs1012"></defs><g id="SvgjsG1013"><svg xmlns="http://www.w3.org/2000/svg" width="288" height="288" fill="none" viewBox="0 0 9 11"><path fill="#ffffff" d="M4.49994 10.375C4.27225 10.375 4.08407 10.2083 4.05429 9.99196L4.05018 9.93182L4.05042 2.14112L1.20597 4.95576C1.0307 5.12921 0.745934 5.12981 0.569916 4.95711C0.409899 4.80011 0.394845 4.55394 0.525107 4.38016L0.568546 4.33036L4.18099 0.755363L4.19046 0.7466C4.20017 0.737522 4.2103 0.728867 4.2208 0.720664L4.18099 0.755363C4.19839 0.738138 4.21688 0.722619 4.23623 0.708805C4.24838 0.700455 4.261 0.692351 4.27404 0.684875C4.30305 0.667986 4.33341 0.654899 4.36462 0.645245C4.37563 0.641992 4.38686 0.638968 4.39827 0.636372C4.40697 0.634259 4.41582 0.632524 4.4247 0.631051C4.43433 0.629579 4.44396 0.628294 4.45369 0.627315C4.46344 0.626205 4.47342 0.625525 4.48341 0.62517C4.48894 0.625097 4.49443 0.625 4.49994 0.625L4.51487 0.625132C4.52595 0.625498 4.53702 0.626266 4.54805 0.627434L4.49994 0.625C4.52562 0.625 4.5508 0.627121 4.57531 0.631195C4.58647 0.633016 4.59769 0.635322 4.60881 0.638052C4.61766 0.640242 4.62634 0.64265 4.63491 0.645303C4.6451 0.648436 4.65536 0.652015 4.6655 0.655972C4.67597 0.660082 4.68621 0.664526 4.69624 0.669327C4.70391 0.672964 4.71183 0.677035 4.71964 0.681355C4.73429 0.689502 4.74804 0.698125 4.76126 0.707437C4.76332 0.708901 4.76561 0.710544 4.76788 0.712209C4.78795 0.72699 4.80566 0.74231 4.82206 0.758891L8.43143 4.33034C8.6067 4.50377 8.60611 4.78437 8.43011 4.95709C8.27011 5.1141 8.02021 5.1279 7.84441 4.9988L7.79406 4.95579L4.95012 2.14167L4.9497 9.93182C4.9497 10.1766 4.74833 10.375 4.49994 10.375Z" class="color0062FF svgShape"></path></svg></g></svg>