<svg width="9" height="11" viewBox="0 0 9 11" fill="none" xmlns="http://www.w3.org/2000/svg">
<path d="M4.50006 0.625C4.72775 0.625 4.91593 0.791727 4.94571 1.00804L4.94982 1.06818L4.94958 8.85887L7.79403 6.04423C7.9693 5.87079 8.25407 5.87018 8.43008 6.04288C8.5901 6.19988 8.60516 6.44606 8.47489 6.61984L8.43145 6.66964L4.81901 10.2446L4.80954 10.2534C4.79983 10.2625 4.7897 10.2711 4.7792 10.2793L4.81901 10.2446C4.80161 10.2619 4.78312 10.2774 4.76378 10.2912C4.75162 10.2995 4.739 10.3076 4.72596 10.3151C4.69695 10.332 4.66659 10.3451 4.63538 10.3548C4.62437 10.358 4.61314 10.361 4.60173 10.3636C4.59303 10.3657 4.58418 10.3675 4.5753 10.3689C4.56567 10.3704 4.55604 10.3717 4.54631 10.3727C4.53656 10.3738 4.52658 10.3745 4.5166 10.3748C4.51106 10.3749 4.50557 10.375 4.50006 10.375L4.48513 10.3749C4.47405 10.3745 4.46298 10.3737 4.45195 10.3726L4.50006 10.375C4.47438 10.375 4.4492 10.3729 4.42469 10.3688C4.41353 10.367 4.40231 10.3647 4.39119 10.3619C4.38234 10.3598 4.37366 10.3574 4.36509 10.3547C4.3549 10.3516 4.34464 10.348 4.3345 10.344C4.32403 10.3399 4.31379 10.3355 4.30376 10.3307C4.29609 10.327 4.28817 10.323 4.28036 10.3186C4.26571 10.3105 4.25196 10.3019 4.23875 10.2926C4.23668 10.2911 4.23439 10.2895 4.23212 10.2878C4.21205 10.273 4.19434 10.2577 4.17794 10.2411L0.568573 6.66966C0.393297 6.49623 0.393886 6.21563 0.56989 6.04291C0.729894 5.8859 0.979786 5.8721 1.15559 6.0012L1.20594 6.04421L4.04988 8.85833L4.0503 1.06818C4.0503 0.823419 4.25167 0.625 4.50006 0.625Z" fill="#0062FF"/>
</svg>
