<svg width="95" height="95" viewBox="0 0 95 95" fill="none" xmlns="http://www.w3.org/2000/svg">
<path d="M25.338 30.1798C21.4014 32.9835 19.4949 37.9915 20.8043 42.0875C21.4164 44.0015 23.7 48.4532 31.6705 48.4532C39.6412 48.4532 41.9249 44.0015 42.5367 42.0873C43.8463 37.9913 41.9396 32.9835 38.0031 30.1798C36.7935 29.3183 36.3046 28.2395 35.8315 27.1962C35.1741 25.7461 34.356 23.9412 31.6703 23.9412C28.9848 23.9412 28.1666 25.7459 27.5091 27.196C27.0366 28.2395 26.5473 29.3185 25.338 30.1798ZM30.0445 28.3455C30.6776 26.949 30.8398 26.7247 31.6707 26.7247C32.5018 26.7247 32.6639 26.9488 33.297 28.3455C33.8338 29.5291 34.5688 31.1504 36.3889 32.4469C39.3662 34.5675 40.8371 38.2654 39.8861 41.2399C38.9726 44.0966 36.0552 45.6699 31.6709 45.6699C27.2867 45.6699 24.3689 44.0966 23.4558 41.2399C22.5049 38.2655 23.9755 34.5675 26.9529 32.4469C28.7726 31.1504 29.5077 29.5293 30.0445 28.3455Z" fill="#4F566C"/>
<path d="M31.6707 44.4206C32.0246 44.4206 32.3786 44.2865 32.6497 44.018C34.2744 42.4098 35.1691 40.266 35.1691 37.9815C35.1691 35.697 34.2744 33.5531 32.6497 31.9449C32.1075 31.408 31.2338 31.408 30.6916 31.9449C29.0671 33.5531 28.1724 35.697 28.1724 37.9815C28.1724 40.266 29.0671 42.4098 30.6916 44.018C30.9627 44.2865 31.3167 44.4206 31.6707 44.4206ZM31.6707 35.2097C32.1378 36.0478 32.3858 36.9953 32.3858 37.9815C32.3858 38.9677 32.1376 39.9151 31.6707 40.7532C31.2037 39.9151 30.9556 38.9677 30.9556 37.9815C30.9556 36.9953 31.2037 36.0478 31.6707 35.2097Z" fill="#4F566C"/>
<path d="M19.4009 55.0154C18.5115 55.8537 14.0752 60.1948 14.0752 63.3362C14.0752 66.7991 16.8926 69.6165 20.3555 69.6165C23.8183 69.6165 26.6357 66.7991 26.6357 63.3362C26.6357 60.1948 22.1995 55.8537 21.3102 55.0154C20.7741 54.5101 19.9369 54.5101 19.4009 55.0154ZM23.8522 63.3362C23.8522 65.2644 22.2836 66.8333 20.3553 66.8333C18.4271 66.8333 16.8583 65.2644 16.8583 63.3362C16.8583 62.5862 17.9755 60.4616 20.3553 57.9862C22.735 60.4618 23.8522 62.5862 23.8522 63.3362Z" fill="#4F566C"/>
<path d="M63.3331 26.4346C62.4946 25.5453 58.1538 21.109 55.0123 21.109C51.5493 21.109 48.7319 23.9264 48.7319 27.3893C48.7319 30.8522 51.5493 33.6694 55.0123 33.6694C58.1538 33.6694 62.4946 29.2331 63.3331 28.3438C63.8384 27.8077 63.8384 26.9707 63.3331 26.4346ZM55.0123 30.886C53.0838 30.886 51.5152 29.3172 51.5152 27.3891C51.5152 25.4609 53.0838 23.892 55.0123 23.892C55.7623 23.892 57.8868 25.0094 60.3622 27.3891C57.8868 29.769 55.7623 30.886 55.0123 30.886Z" fill="#4F566C"/>
<path d="M11.1575 21.5005C8.01423 21.5005 5.45679 24.0577 5.45679 27.2012C5.45679 30.3446 8.01404 32.9018 11.1575 32.9018C14.3009 32.9018 16.8583 30.3446 16.8583 27.2012C16.8583 24.0577 14.3009 21.5005 11.1575 21.5005ZM11.1575 30.1188C9.54873 30.1188 8.24004 28.8101 8.24004 27.2013C8.24004 25.5926 9.54873 24.2839 11.1575 24.2839C12.7662 24.2839 14.0751 25.5926 14.0751 27.2013C14.0751 28.8101 12.7662 30.1188 11.1575 30.1188Z" fill="#4F566C"/>
<path d="M38.7573 80.0588C41.9007 80.0588 44.4582 77.5015 44.4582 74.3581C44.4582 71.2147 41.9009 68.6574 38.7573 68.6574C35.6141 68.6574 33.0566 71.2147 33.0566 74.3581C33.0566 77.5015 35.6141 80.0588 38.7573 80.0588ZM38.7573 71.4405C40.366 71.4405 41.6749 72.7492 41.6749 74.3579C41.6749 75.9666 40.366 77.2753 38.7573 77.2753C37.1486 77.2753 35.8399 75.9666 35.8399 74.3579C35.8399 72.7492 37.1486 71.4405 38.7573 71.4405Z" fill="#4F566C"/>
<path d="M46.1103 4.25449C42.9671 4.25449 40.4097 6.81174 40.4097 9.95515C40.4097 13.0986 42.9669 15.6558 46.1103 15.6558C49.2537 15.6558 51.8112 13.0986 51.8112 9.95515C51.8112 6.81174 49.2537 4.25449 46.1103 4.25449ZM46.1103 12.8726C44.5016 12.8726 43.1929 11.5639 43.1929 9.95515C43.1929 8.34643 44.5016 7.03774 46.1103 7.03774C47.7191 7.03774 49.0279 8.34643 49.0279 9.95515C49.0279 11.5639 47.7191 12.8726 46.1103 12.8726Z" fill="#4F566C"/>
<path d="M63.5024 54.7589L63.988 54.7198C66.6889 54.4953 69.4049 54.2999 72.0604 54.1396C75.275 53.9479 78.4659 53.8006 81.5448 53.7015C82.2784 53.6779 82.8677 53.0884 82.8909 52.3547C82.9724 49.7862 83.0253 47.1747 83.0475 44.5934C83.0776 41.3308 83.0613 38.0653 82.9991 34.8891C82.8768 28.3987 82.5653 21.8066 82.0734 15.297C81.9908 14.1952 81.9023 13.088 81.8107 12.0064C81.5902 9.40871 80.5517 7.0179 78.8101 5.09559C78.314 4.54451 77.7633 4.03833 77.1706 3.58911C75.3889 2.24554 73.2726 1.43598 71.0511 1.24839C69.5035 1.11646 68.13 1.00847 66.8559 0.918665C51.5511 -0.198164 36.0378 -0.297062 20.7478 0.624196C18.0151 0.787481 15.2763 0.983608 12.6128 1.20682L12.1242 1.2482C6.37863 1.73509 1.85324 6.25918 1.36413 12.0061C1.26875 13.1255 1.17264 14.3269 1.06984 15.6794C1.01177 16.4457 1.58567 17.1143 2.352 17.1725C3.11925 17.231 3.78686 16.6567 3.84512 15.8904C3.94736 14.5462 4.04273 13.353 4.13718 12.2421C4.46282 8.4175 7.12825 5.30248 10.7075 4.31647C10.6776 4.56492 10.6604 4.81523 10.6604 5.06702C10.6604 8.53013 13.4772 11.3475 16.9394 11.3475C20.0812 11.3475 24.4221 6.91083 25.2606 6.02149C25.7659 5.48525 25.7659 4.64823 25.2604 4.11217C25.2304 4.08026 24.8936 3.72493 24.3613 3.2143C37.7708 2.54316 51.326 2.66024 64.7378 3.56276C64.1852 5.33792 64.0498 7.25874 64.365 9.13651C64.6111 10.6005 64.1939 11.709 63.7906 12.7811C63.23 14.2713 62.5323 16.1256 64.4307 18.0242C65.37 18.9633 66.2977 19.2676 67.1763 19.2676C68.0747 19.2676 68.9216 18.9492 69.6751 18.6656C70.7472 18.2624 71.8553 17.8457 73.3201 18.0914C75.3811 18.4382 77.5226 18.2309 79.4438 17.5291C79.8084 22.7671 80.0544 28.0443 80.1787 33.2675C78.4947 33.2288 76.8468 33.8689 75.6088 35.1071C73.1612 37.5545 73.1609 41.5386 75.6088 43.9885C76.4922 44.8717 78.018 45.4697 80.2476 45.8072C80.2262 47.5262 80.1954 49.2509 80.1479 50.964C77.4519 51.0616 74.6818 51.1947 71.8937 51.3609C69.6135 51.4988 67.29 51.6632 64.9716 51.8484C63.5894 49.3011 61.3756 47.5857 58.7731 47.0898C56.473 46.6513 52.8791 46.9814 48.8176 51.0427C44.0541 55.8062 44.4545 59.9447 45.1173 61.9874C46.0729 64.9332 48.7444 67.27 52.0957 68.1868C51.8222 72.1391 51.6136 76.0983 51.4758 80.0203C41.2274 80.314 30.8642 80.145 20.597 79.519C20.9213 78.974 21.1247 78.2843 21.1247 77.3838C21.1247 74.6982 19.32 73.8801 17.87 73.2227C16.827 72.7497 15.7484 72.2608 14.8872 71.0519C12.2049 67.2858 7.71329 65.4503 3.79651 66.2998C2.72069 51.3927 2.61233 36.2955 3.48126 21.3951C3.52598 20.6278 2.94019 19.9695 2.17294 19.9248C1.40625 19.8797 0.747357 20.4657 0.70264 21.2331C-0.208042 36.8513 -0.057004 52.6847 1.15149 68.2919C1.21847 69.1695 1.28935 70.0509 1.36413 70.9334C1.53502 72.9406 2.2197 74.8806 3.34339 76.5425C4.51774 78.2819 6.13649 79.6771 8.01778 80.5738C9.29808 81.1926 10.6789 81.5699 12.1262 81.6949C13.7316 81.8285 15.1353 81.9382 16.4158 82.03C24.7864 82.6384 33.2373 82.9437 41.6583 82.9437C45.4042 82.9437 49.1452 82.8832 52.8687 82.7622C53.6061 82.7383 54.1941 82.1419 54.2145 81.409C54.4052 75.3137 54.7659 69.1137 55.286 62.9825C55.6599 58.5907 59.1177 55.1321 63.5024 54.7589ZM16.9394 8.56427C15.0117 8.56427 13.4437 6.99544 13.4437 5.06702C13.4437 4.67272 13.5101 4.28362 13.6377 3.9166C15.8617 3.73569 18.1264 3.57426 20.3938 3.43529C21.1141 4.00437 21.7765 4.60036 22.2801 5.07667C19.8084 7.44986 17.6885 8.56427 16.9394 8.56427ZM76.0111 6.23766C76.0827 6.30093 76.1538 6.36513 76.2234 6.43081C75.9432 7.24445 75.4821 7.98573 74.865 8.60268C74.1673 9.30035 73.3217 9.79484 72.3984 10.057C72.6608 9.13484 73.1551 8.28947 73.8524 7.59143C74.4649 6.97893 75.2025 6.51858 76.0111 6.23766ZM73.7813 15.3467C71.5777 14.9767 69.9119 15.6029 68.6954 16.0605C67.2604 16.6005 66.9868 16.6443 66.399 16.0561C65.8119 15.469 65.8557 15.1958 66.3955 13.761C66.8532 12.5445 67.4802 10.8785 67.1099 8.67505C66.8288 7.00175 67.0102 5.28968 67.6157 3.76408C68.6058 3.83812 69.6612 3.92291 70.8161 4.02144C71.6349 4.09065 72.4346 4.27119 73.1959 4.55341C72.7274 4.86458 72.2867 5.22084 71.8839 5.62348C70.2689 7.24037 69.3858 9.38867 69.3979 11.6726C69.4018 12.4354 70.0193 13.0527 70.7821 13.0568H70.8285C73.0978 13.0568 75.2288 12.1747 76.8333 10.5701C77.3265 10.0771 77.7525 9.52988 78.1067 8.9415C78.6212 9.95961 78.9385 11.0724 79.0376 12.2411C79.1037 13.0199 79.1669 13.8124 79.2287 14.6065C77.5862 15.3901 75.6459 15.6607 73.7813 15.3467ZM77.577 37.0752C78.2939 36.3583 79.2575 36.0003 80.234 36.0543C80.2708 38.3392 80.2841 40.661 80.2734 42.9926C78.3589 42.6566 77.7384 42.1819 77.5773 42.0207C76.2141 40.6567 76.2139 38.4381 77.577 37.0752ZM12.6204 72.6668C13.9166 74.4865 15.5376 75.2212 16.7212 75.7577C18.1175 76.3908 18.3416 76.5529 18.3416 77.3838C18.3416 78.2149 18.1175 78.3773 16.721 79.0109C16.5683 79.0803 16.4112 79.1525 16.2508 79.2275C15.116 79.1447 13.8814 79.0477 12.4977 78.9328C12.7139 78.7538 12.9226 78.5641 13.1217 78.3628C13.6587 77.8204 13.6587 76.9469 13.1217 76.4047C11.5132 74.7802 9.36952 73.8857 7.08576 73.8857C6.42223 73.8857 5.7691 73.9615 5.13303 74.1117C4.58194 73.0553 4.23923 71.8932 4.13737 70.6983C4.09265 70.1696 4.05201 69.6417 4.00989 69.1135C6.9106 68.2911 10.5287 69.7297 12.6204 72.6668ZM7.12881 76.6704C8.09868 76.6776 9.03015 76.9237 9.85566 77.3835C9.51666 77.572 9.15818 77.7234 8.78652 77.839C8.19053 77.5134 7.63499 77.1207 7.12881 76.6704ZM47.7647 61.1287C46.9596 58.6469 48.0325 55.7639 50.7857 53.0109C53.3186 50.4779 55.9004 49.3755 58.2519 49.824C59.673 50.0947 60.9373 50.9306 61.8898 52.1874C59.9986 52.5742 58.2779 53.4061 56.8393 54.5713C55.5792 53.8674 54.1419 53.487 52.6876 53.487C52.674 53.487 52.6603 53.487 52.6468 53.487C51.8836 53.4907 51.2659 54.1082 51.2618 54.8712C51.2516 56.789 51.8784 58.6202 53.0398 60.1156C52.7703 60.9546 52.5904 61.8353 52.5128 62.7469C52.4395 63.6106 52.3703 64.4758 52.3035 65.3418C50.0967 64.5927 48.3843 63.0384 47.7647 61.1287ZM54.2635 56.4877C54.4505 56.541 54.6342 56.605 54.8144 56.6773C54.7029 56.8267 54.595 56.9788 54.4906 57.1336C54.4021 56.9232 54.3262 56.7076 54.2635 56.4877Z" fill="#4F566C"/>
<path d="M90.832 60.2972C88.5578 60.3722 86.2798 60.4689 84.0608 60.5841C83.2934 60.624 82.7035 61.2786 82.7432 62.046C82.7831 62.8137 83.4341 63.4043 84.2054 63.3636C85.9232 63.2744 87.677 63.1964 89.437 63.1311C89.2366 68.7431 88.8931 74.4358 88.4148 80.0756C88.0428 84.4674 84.5848 87.9251 80.1925 88.2973C74.7037 88.7647 69.1435 89.1032 63.6418 89.3051C63.7757 85.5525 63.975 81.7647 64.2344 77.9813C65.0351 78.0075 65.8389 77.9546 66.6378 77.8208C68.1026 77.5742 69.2116 77.9909 70.2843 78.3943C71.038 78.6777 71.8845 78.9961 72.7829 78.9959C73.6607 78.9959 74.5883 78.6918 75.5265 77.7538C77.4263 75.8553 76.7288 74.0003 76.1683 72.51C75.7651 71.4377 75.3481 70.3288 75.5942 68.8645C75.8736 67.2023 75.805 65.5275 75.4032 63.9338C76.5186 63.8472 77.6137 63.7672 78.6706 63.6965C79.4375 63.6453 80.0175 62.9819 79.9661 62.2151C79.9149 61.448 79.251 60.8685 78.4847 60.9194C76.775 61.0337 74.9744 61.1699 73.1362 61.3235L72.6508 61.3647C66.9028 61.8518 62.3776 66.377 61.8905 72.1246C61.3658 78.3097 61.0023 84.5607 60.8103 90.7037C60.7982 91.088 60.9455 91.4601 61.2175 91.7319C61.4788 91.993 61.8328 92.139 62.2011 92.139C62.216 92.139 62.231 92.1388 62.246 92.1382C68.2794 91.9436 74.397 91.5844 80.4281 91.0708C86.1761 90.5837 90.7013 86.0585 91.1884 80.3109C91.7131 74.1235 92.0766 67.8727 92.2687 61.7319C92.2807 61.3474 92.1332 60.9752 91.861 60.7036C91.5888 60.4316 91.2138 60.2868 90.832 60.2972ZM73.5587 75.7853C72.972 76.3722 72.699 76.3286 71.264 75.789C70.047 75.3314 68.3798 74.705 66.1769 75.0759C65.598 75.173 65.0161 75.2136 64.4363 75.2016C64.5088 74.2532 64.5838 73.3056 64.6641 72.3597C64.6864 72.0969 64.7204 71.8379 64.7643 71.5824C66.0695 72.3678 67.5667 72.7866 69.1296 72.7866H69.176C69.9388 72.7825 70.5561 72.165 70.5602 71.4024C70.5711 69.2973 69.8224 67.3112 68.4445 65.7504C69.6382 64.9085 71.0486 64.3517 72.5805 64.171C72.9903 65.5197 73.0874 66.99 72.8497 68.4032C72.4795 70.607 73.1061 72.2732 73.5635 73.4899C74.1029 74.9245 74.1469 75.1977 73.5587 75.7853ZM66.4428 67.6923C66.9627 68.3102 67.342 69.0205 67.5595 69.7859C66.8902 69.5953 66.2619 69.2808 65.6993 68.8561C65.9179 68.4481 66.1667 68.0594 66.4428 67.6923Z" fill="#4F566C"/>
<path d="M53.416 86.5192L49.6985 84.6535C48.8277 84.2164 47.8034 84.2464 46.9595 84.7346C46.1157 85.2226 45.5787 86.0951 45.523 87.0681L45.2447 91.9445C45.1796 93.0795 45.7622 94.1175 46.7645 94.6538C47.198 94.8855 47.6654 95 48.1302 95C48.7408 95 49.3465 94.8024 49.8621 94.4138L53.8581 91.4029C54.661 90.7978 55.0861 89.8389 54.9954 88.8377C54.9048 87.8368 54.3142 86.9699 53.416 86.5192ZM52.1832 89.1802L48.1871 92.1911C48.1641 92.2086 48.1356 92.2307 48.0771 92.1995C48.0194 92.1687 48.0215 92.1325 48.0233 92.1034L48.3018 87.2267C48.3027 87.2089 48.305 87.1716 48.3527 87.144C48.3723 87.1325 48.3898 87.1286 48.4042 87.1286C48.4248 87.1286 48.4402 87.1364 48.4497 87.141L52.1674 89.0067C52.1852 89.0156 52.2182 89.0321 52.2234 89.0889C52.2286 89.1459 52.1991 89.1681 52.1832 89.1802Z" fill="#4F566C"/>
<path d="M93.7635 47.2542C92.9684 46.6389 91.9316 46.4812 90.9894 46.8322L87.0922 48.2851C86.1788 48.6256 85.5037 49.3961 85.2868 50.3464C85.0699 51.2966 85.3432 52.2839 86.0181 52.9871L89.4003 56.5111C89.9581 57.0922 90.7014 57.4023 91.4697 57.4023C91.7857 57.4023 92.1064 57.3498 92.4196 57.2422C93.4949 56.8729 94.2354 55.9411 94.3525 54.8103L94.8677 49.8335C94.9715 48.8336 94.5584 47.8694 93.7635 47.2542ZM92.0993 49.5468L91.584 54.5237C91.5809 54.5526 91.5774 54.5888 91.5154 54.6099C91.454 54.6309 91.4284 54.6049 91.4083 54.584L88.0261 51.06C88.0137 51.047 87.9877 51.0201 88 50.9663C88.0122 50.9125 88.0473 50.8995 88.0642 50.8932H88.0643L91.9615 49.4403C91.9706 49.4368 91.9835 49.4321 91.9997 49.4321C92.0166 49.4321 92.037 49.4375 92.06 49.4553C92.1053 49.4902 92.1014 49.527 92.0993 49.5468Z" fill="#4F566C"/>
<path d="M86.6052 44.4205C87.3739 44.4205 87.9968 43.7975 87.9968 43.0289V42.9356C87.9968 42.1671 87.3739 41.544 86.6052 41.544C85.8365 41.544 85.2136 42.1671 85.2136 42.9356V43.0289C85.2136 43.7975 85.8365 44.4205 86.6052 44.4205Z" fill="#4F566C"/>
<path d="M81.8835 57.3067V57.4C81.8835 58.1685 82.5064 58.7916 83.2751 58.7916C84.0439 58.7916 84.6667 58.1685 84.6667 57.4V57.3067C84.6667 56.5381 84.0439 55.9151 83.2751 55.9151C82.5064 55.9151 81.8835 56.538 81.8835 57.3067Z" fill="#4F566C"/>
<path d="M56.9758 83.3306C56.2071 83.3306 55.5842 83.9536 55.5842 84.7222V84.8155C55.5842 85.584 56.2071 86.2071 56.9758 86.2071C57.7446 86.2071 58.3674 85.584 58.3674 84.8155V84.7222C58.3674 83.9534 57.7446 83.3306 56.9758 83.3306Z" fill="#4F566C"/>
<path d="M36.1343 56.0746V55.9813C36.1343 55.2128 35.5114 54.5897 34.7427 54.5897C33.974 54.5897 33.3511 55.2128 33.3511 55.9813V56.0746C33.3511 56.8432 33.974 57.4662 34.7427 57.4662C35.5114 57.4662 36.1343 56.8432 36.1343 56.0746Z" fill="#4F566C"/>
<path d="M62.2019 38.8687C61.4332 38.8687 60.8103 39.4918 60.8103 40.2603V40.3537C60.8103 41.1222 61.4332 41.7453 62.2019 41.7453C62.9706 41.7453 63.5935 41.1222 63.5935 40.3537V40.2603C63.5935 39.4918 62.9704 38.8687 62.2019 38.8687Z" fill="#4F566C"/>
<path d="M10.0554 41.5908C9.2867 41.5908 8.66382 42.2138 8.66382 42.9824V43.0757C8.66382 43.8442 9.2867 44.4673 10.0554 44.4673C10.8241 44.4673 11.447 43.8442 11.447 43.0757V42.9824C11.447 42.2138 10.8241 41.5908 10.0554 41.5908Z" fill="#4F566C"/>
<path d="M29.6797 17.9206V17.8273C29.6797 17.0588 29.0568 16.4357 28.2881 16.4357C27.5194 16.4357 26.8965 17.0588 26.8965 17.8273V17.9206C26.8965 18.6892 27.5194 19.3122 28.2881 19.3122C29.0568 19.3122 29.6797 18.6894 29.6797 17.9206Z" fill="#4F566C"/>
</svg>
