<svg width="95" height="95" viewBox="0 0 95 95" fill="none" xmlns="http://www.w3.org/2000/svg">
<path d="M25.3381 30.1798C21.4014 32.9835 19.4949 37.9915 20.8043 42.0875C21.4165 44.0015 23.7 48.4532 31.6705 48.4532C39.6412 48.4532 41.925 44.0015 42.5368 42.0873C43.8464 37.9913 41.9397 32.9835 38.0032 30.1798C36.7936 29.3183 36.3047 28.2395 35.8315 27.1962C35.1741 25.7461 34.356 23.9412 31.6704 23.9412C28.9849 23.9412 28.1666 25.7459 27.5092 27.196C27.0366 28.2395 26.5473 29.3185 25.3381 30.1798ZM30.0446 28.3455C30.6777 26.949 30.8398 26.7247 31.6707 26.7247C32.5018 26.7247 32.664 26.9488 33.2971 28.3455C33.8339 29.5291 34.5688 31.1504 36.3889 32.4469C39.3663 34.5675 40.8371 38.2654 39.8862 41.2399C38.9727 44.0966 36.0553 45.6699 31.6709 45.6699C27.2867 45.6699 24.369 44.0966 23.4559 41.2399C22.5049 38.2655 23.9756 34.5675 26.9529 32.4469C28.7726 31.1504 29.5078 29.5293 30.0446 28.3455Z" fill="#DADADA"/>
<path d="M31.6707 44.4206C32.0246 44.4206 32.3786 44.2865 32.6497 44.018C34.2744 42.4098 35.1691 40.266 35.1691 37.9815C35.1691 35.697 34.2744 33.5531 32.6497 31.9449C32.1075 31.408 31.2338 31.408 30.6916 31.9449C29.0671 33.5531 28.1724 35.697 28.1724 37.9815C28.1724 40.266 29.0671 42.4098 30.6916 44.018C30.9627 44.2865 31.3167 44.4206 31.6707 44.4206ZM31.6707 35.2097C32.1378 36.0478 32.3858 36.9953 32.3858 37.9815C32.3858 38.9677 32.1376 39.9151 31.6707 40.7532C31.2037 39.9151 30.9556 38.9677 30.9556 37.9815C30.9556 36.9953 31.2037 36.0478 31.6707 35.2097Z" fill="#DADADA"/>
<path d="M19.4008 55.0154C18.5115 55.8537 14.0751 60.1948 14.0751 63.3362C14.0751 66.7991 16.8925 69.6165 20.3555 69.6165C23.8182 69.6165 26.6356 66.7991 26.6356 63.3362C26.6356 60.1948 22.1995 55.8537 21.3101 55.0154C20.7741 54.5101 19.9369 54.5101 19.4008 55.0154ZM23.8522 63.3362C23.8522 65.2644 22.2835 66.8333 20.3553 66.8333C18.427 66.8333 16.8582 65.2644 16.8582 63.3362C16.8582 62.5862 17.9754 60.4616 20.3553 57.9862C22.735 60.4618 23.8522 62.5862 23.8522 63.3362Z" fill="#DADADA"/>
<path d="M63.333 26.4346C62.4945 25.5453 58.1538 21.109 55.0122 21.109C51.5493 21.109 48.7319 23.9264 48.7319 27.3893C48.7319 30.8522 51.5493 33.6694 55.0122 33.6694C58.1538 33.6694 62.4945 29.2331 63.333 28.3438C63.8383 27.8077 63.8383 26.9707 63.333 26.4346ZM55.0122 30.886C53.0838 30.886 51.5151 29.3172 51.5151 27.3891C51.5151 25.4609 53.0838 23.892 55.0122 23.892C55.7622 23.892 57.8868 25.0094 60.3622 27.3891C57.8868 29.769 55.7622 30.886 55.0122 30.886Z" fill="#DADADA"/>
<path d="M11.1576 21.5005C8.01435 21.5005 5.45691 24.0577 5.45691 27.2012C5.45691 30.3446 8.01417 32.9018 11.1576 32.9018C14.301 32.9018 16.8584 30.3446 16.8584 27.2012C16.8584 24.0577 14.301 21.5005 11.1576 21.5005ZM11.1576 30.1188C9.54885 30.1188 8.24017 28.8101 8.24017 27.2013C8.24017 25.5926 9.54885 24.2839 11.1576 24.2839C12.7663 24.2839 14.0752 25.5926 14.0752 27.2013C14.0752 28.8101 12.7663 30.1188 11.1576 30.1188Z" fill="#DADADA"/>
<path d="M38.7574 80.0588C41.9008 80.0588 44.4583 77.5015 44.4583 74.3581C44.4583 71.2147 41.901 68.6574 38.7574 68.6574C35.6142 68.6574 33.0568 71.2147 33.0568 74.3581C33.0568 77.5015 35.6142 80.0588 38.7574 80.0588ZM38.7574 71.4405C40.3662 71.4405 41.675 72.7492 41.675 74.3579C41.675 75.9666 40.3662 77.2753 38.7574 77.2753C37.1487 77.2753 35.84 75.9666 35.84 74.3579C35.84 72.7492 37.1487 71.4405 38.7574 71.4405Z" fill="#DADADA"/>
<path d="M46.1105 4.25449C42.9672 4.25449 40.4098 6.81174 40.4098 9.95515C40.4098 13.0986 42.967 15.6558 46.1105 15.6558C49.2539 15.6558 51.8113 13.0986 51.8113 9.95515C51.8113 6.81174 49.2539 4.25449 46.1105 4.25449ZM46.1105 12.8726C44.5017 12.8726 43.193 11.5639 43.193 9.95515C43.193 8.34643 44.5017 7.03774 46.1105 7.03774C47.7192 7.03774 49.0281 8.34643 49.0281 9.95515C49.0281 11.5639 47.7192 12.8726 46.1105 12.8726Z" fill="#DADADA"/>
<path d="M63.5025 54.7589L63.988 54.7198C66.6889 54.4953 69.405 54.2999 72.0604 54.1396C75.2751 53.9479 78.466 53.8006 81.5448 53.7015C82.2785 53.6779 82.8678 53.0884 82.891 52.3547C82.9725 49.7862 83.0253 47.1747 83.0476 44.5934C83.0777 41.3308 83.0613 38.0653 82.9992 34.8891C82.8769 28.3987 82.5654 21.8066 82.0735 15.297C81.9909 14.1952 81.9024 13.088 81.8107 12.0064C81.5903 9.40871 80.5518 7.0179 78.8102 5.09559C78.314 4.54451 77.7633 4.03833 77.1707 3.58911C75.389 2.24554 73.2726 1.43598 71.0512 1.24839C69.5035 1.11646 68.1301 1.00847 66.8559 0.918665C51.5511 -0.198164 36.0378 -0.297062 20.7479 0.624196C18.0151 0.787481 15.2764 0.983608 12.6128 1.20682L12.1243 1.2482C6.37869 1.73509 1.8533 6.25918 1.36419 12.0061C1.26882 13.1255 1.1727 14.3269 1.06991 15.6794C1.01183 16.4457 1.58574 17.1143 2.35206 17.1725C3.11931 17.231 3.78692 16.6567 3.84518 15.8904C3.94742 14.5462 4.0428 13.353 4.13724 12.2421C4.46288 8.4175 7.12831 5.30248 10.7076 4.31647C10.6777 4.56492 10.6605 4.81523 10.6605 5.06702C10.6605 8.53013 13.4773 11.3475 16.9395 11.3475C20.0812 11.3475 24.4222 6.91083 25.2607 6.02149C25.7659 5.48525 25.7659 4.64823 25.2605 4.11217C25.2304 4.08026 24.8937 3.72493 24.3613 3.2143C37.7709 2.54316 51.3261 2.66024 64.7379 3.56276C64.1853 5.33792 64.0498 7.25874 64.3651 9.13651C64.6111 10.6005 64.194 11.709 63.7906 12.7811C63.2301 14.2713 62.5324 16.1256 64.4308 18.0242C65.37 18.9633 66.2978 19.2676 67.1764 19.2676C68.0748 19.2676 68.9216 18.9492 69.6752 18.6656C70.7473 18.2624 71.8554 17.8457 73.3201 18.0914C75.3812 18.4382 77.5227 18.2309 79.4438 17.5291C79.8084 22.7671 80.0545 28.0443 80.1788 33.2675C78.4948 33.2288 76.8469 33.8689 75.6089 35.1071C73.1613 37.5545 73.1609 41.5386 75.6089 43.9885C76.4923 44.8717 78.0181 45.4697 80.2477 45.8072C80.2263 47.5262 80.1955 49.2509 80.148 50.964C77.452 51.0616 74.6819 51.1947 71.8938 51.3609C69.6136 51.4988 67.2901 51.6632 64.9716 51.8484C63.5895 49.3011 61.3757 47.5857 58.7731 47.0898C56.4731 46.6513 52.8791 46.9814 48.8176 51.0427C44.0542 55.8062 44.4546 59.9447 45.1174 61.9874C46.073 64.9332 48.7445 67.27 52.0957 68.1868C51.8222 72.1391 51.6137 76.0983 51.4758 80.0203C41.2275 80.314 30.8643 80.145 20.5971 79.519C20.9214 78.974 21.1248 78.2843 21.1248 77.3838C21.1248 74.6982 19.3201 73.8801 17.87 73.2227C16.827 72.7497 15.7484 72.2608 14.8873 71.0519C12.205 67.2858 7.71336 65.4503 3.79657 66.2998C2.72075 51.3927 2.61239 36.2955 3.48132 21.3951C3.52604 20.6278 2.94025 19.9695 2.173 19.9248C1.40631 19.8797 0.747418 20.4657 0.702701 21.2331C-0.207981 36.8513 -0.056943 52.6847 1.15155 68.2919C1.21853 69.1695 1.28941 70.0509 1.36419 70.9334C1.53508 72.9406 2.21976 74.8806 3.34346 76.5425C4.5178 78.2819 6.13655 79.6771 8.01784 80.5738C9.29814 81.1926 10.679 81.5699 12.1263 81.6949C13.7317 81.8285 15.1354 81.9382 16.4159 82.03C24.7864 82.6384 33.2373 82.9437 41.6583 82.9437C45.4042 82.9437 49.1453 82.8832 52.8687 82.7622C53.6061 82.7383 54.1941 82.1419 54.2145 81.409C54.4053 75.3137 54.766 69.1137 55.2861 62.9825C55.66 58.5907 59.1177 55.1321 63.5025 54.7589ZM16.9395 8.56427C15.0118 8.56427 13.4437 6.99544 13.4437 5.06702C13.4437 4.67272 13.5101 4.28362 13.6378 3.9166C15.8618 3.73569 18.1264 3.57426 20.3939 3.43529C21.1142 4.00437 21.7766 4.60036 22.2802 5.07667C19.8085 7.44986 17.6886 8.56427 16.9395 8.56427ZM76.0112 6.23766C76.0828 6.30093 76.1538 6.36513 76.2234 6.43081C75.9432 7.24445 75.4822 7.98573 74.865 8.60268C74.1673 9.30035 73.3218 9.79484 72.3985 10.057C72.6609 9.13484 73.1552 8.28947 73.8525 7.59143C74.465 6.97893 75.2025 6.51858 76.0112 6.23766ZM73.7814 15.3467C71.5778 14.9767 69.9119 15.6029 68.6955 16.0605C67.2604 16.6005 66.9869 16.6443 66.3991 16.0561C65.812 15.469 65.8558 15.1958 66.3956 13.761C66.8533 12.5445 67.4803 10.8785 67.1099 8.67505C66.8288 7.00175 67.0103 5.28968 67.6157 3.76408C68.6058 3.83812 69.6612 3.92291 70.8161 4.02144C71.6349 4.09065 72.4347 4.27119 73.196 4.55341C72.7275 4.86458 72.2868 5.22084 71.884 5.62348C70.2689 7.24037 69.3859 9.38867 69.3979 11.6726C69.4018 12.4354 70.0194 13.0527 70.7822 13.0568H70.8286C73.0978 13.0568 75.2289 12.1747 76.8333 10.5701C77.3265 10.0771 77.7526 9.52988 78.1068 8.9415C78.6213 9.95961 78.9386 11.0724 79.0377 12.2411C79.1037 13.0199 79.167 13.8124 79.2288 14.6065C77.5863 15.3901 75.646 15.6607 73.7814 15.3467ZM77.577 37.0752C78.294 36.3583 79.2576 36.0003 80.2341 36.0543C80.2708 38.3392 80.2842 40.661 80.2734 42.9926C78.3589 42.6566 77.7384 42.1819 77.5774 42.0207C76.2141 40.6567 76.214 38.4381 77.577 37.0752ZM12.6204 72.6668C13.9167 74.4865 15.5376 75.2212 16.7213 75.7577C18.1175 76.3908 18.3417 76.5529 18.3417 77.3838C18.3417 78.2149 18.1175 78.3773 16.7211 79.0109C16.5684 79.0803 16.4112 79.1525 16.2509 79.2275C15.1161 79.1447 13.8814 79.0477 12.4978 78.9328C12.7139 78.7538 12.9227 78.5641 13.1218 78.3628C13.6588 77.8204 13.6588 76.9469 13.1218 76.4047C11.5132 74.7802 9.36958 73.8857 7.08582 73.8857C6.4223 73.8857 5.76916 73.9615 5.13309 74.1117C4.58201 73.0553 4.23929 71.8932 4.13743 70.6983C4.09271 70.1696 4.05207 69.6417 4.00995 69.1135C6.91066 68.2911 10.5287 69.7297 12.6204 72.6668ZM7.12887 76.6704C8.09874 76.6776 9.03021 76.9237 9.85572 77.3835C9.51672 77.572 9.15824 77.7234 8.78658 77.839C8.19059 77.5134 7.63505 77.1207 7.12887 76.6704ZM47.7648 61.1287C46.9597 58.6469 48.0326 55.7639 50.7858 53.0109C53.3187 50.4779 55.9005 49.3755 58.2519 49.824C59.6731 50.0947 60.9374 50.9306 61.8898 52.1874C59.9987 52.5742 58.2779 53.4061 56.8393 54.5713C55.5793 53.8674 54.142 53.487 52.6876 53.487C52.6741 53.487 52.6604 53.487 52.6468 53.487C51.8837 53.4907 51.266 54.1082 51.2619 54.8712C51.2517 56.789 51.8785 58.6202 53.0398 60.1156C52.7704 60.9546 52.5904 61.8353 52.5129 62.7469C52.4396 63.6106 52.3704 64.4758 52.3036 65.3418C50.0968 64.5927 48.3844 63.0384 47.7648 61.1287ZM54.2635 56.4877C54.4506 56.541 54.6343 56.605 54.8144 56.6773C54.7029 56.8267 54.5951 56.9788 54.4906 57.1336C54.4021 56.9232 54.3262 56.7076 54.2635 56.4877Z" fill="#DADADA"/>
<path d="M90.832 60.2972C88.5579 60.3722 86.2799 60.4689 84.0609 60.5841C83.2935 60.624 82.7036 61.2786 82.7433 62.046C82.7832 62.8137 83.4341 63.4043 84.2054 63.3636C85.9233 63.2744 87.6771 63.1964 89.437 63.1311C89.2367 68.7431 88.8932 74.4358 88.4148 80.0756C88.0428 84.4674 84.5849 87.9251 80.1926 88.2973C74.7038 88.7647 69.1436 89.1032 63.6418 89.3051C63.7758 85.5525 63.9751 81.7647 64.2345 77.9813C65.0351 78.0075 65.8389 77.9546 66.6379 77.8208C68.1026 77.5742 69.2117 77.9909 70.2843 78.3943C71.038 78.6777 71.8845 78.9961 72.783 78.9959C73.6608 78.9959 74.5884 78.6918 75.5265 77.7538C77.4264 75.8553 76.7289 74.0003 76.1683 72.51C75.7651 71.4377 75.3482 70.3288 75.5942 68.8645C75.8737 67.2023 75.805 65.5275 75.4033 63.9338C76.5187 63.8472 77.6138 63.7672 78.6707 63.6965C79.4375 63.6453 80.0176 62.9819 79.9662 62.2151C79.915 61.448 79.2511 60.8685 78.4847 60.9194C76.7751 61.0337 74.9745 61.1699 73.1362 61.3235L72.6508 61.3647C66.9029 61.8518 62.3777 66.377 61.8906 72.1246C61.3659 78.3097 61.0024 84.5607 60.8103 90.7037C60.7983 91.088 60.9456 91.4601 61.2176 91.7319C61.4789 91.993 61.8329 92.139 62.2012 92.139C62.216 92.139 62.2311 92.1388 62.2461 92.1382C68.2795 91.9436 74.3971 91.5844 80.4282 91.0708C86.1762 90.5837 90.7014 86.0585 91.1885 80.3109C91.7132 74.1235 92.0767 67.8727 92.2687 61.7319C92.2808 61.3474 92.1333 60.9752 91.8611 60.7036C91.5889 60.4316 91.2139 60.2868 90.832 60.2972ZM73.5587 75.7853C72.972 76.3722 72.6991 76.3286 71.264 75.789C70.047 75.3314 68.3799 74.705 66.177 75.0759C65.5981 75.173 65.0162 75.2136 64.4363 75.2016C64.5089 74.2532 64.5839 73.3056 64.6642 72.3597C64.6865 72.0969 64.7204 71.8379 64.7644 71.5824C66.0696 72.3678 67.5668 72.7866 69.1297 72.7866H69.176C69.9388 72.7825 70.5562 72.165 70.5603 71.4024C70.5712 69.2973 69.8225 67.3112 68.4446 65.7504C69.6382 64.9085 71.0486 64.3517 72.5805 64.171C72.9904 65.5197 73.0875 66.99 72.8498 68.4032C72.4796 70.607 73.1062 72.2732 73.5636 73.4899C74.103 74.9245 74.1469 75.1977 73.5587 75.7853ZM66.4429 67.6923C66.9628 68.3102 67.3421 69.0205 67.5595 69.7859C66.8902 69.5953 66.262 69.2808 65.6994 68.8561C65.918 68.4481 66.1668 68.0594 66.4429 67.6923Z" fill="#DADADA"/>
<path d="M53.4161 86.5192L49.6986 84.6535C48.8278 84.2164 47.8036 84.2464 46.9597 84.7346C46.1158 85.2226 45.5789 86.0951 45.5232 87.0681L45.2449 91.9445C45.1797 93.0795 45.7624 94.1175 46.7647 94.6538C47.1982 94.8855 47.6656 95 48.1304 95C48.741 95 49.3467 94.8024 49.8623 94.4138L53.8583 91.4029C54.6612 90.7978 55.0863 89.8389 54.9955 88.8377C54.905 87.8368 54.3144 86.9699 53.4161 86.5192ZM52.1833 89.1802L48.1873 92.1911C48.1643 92.2086 48.1357 92.2307 48.0773 92.1995C48.0196 92.1687 48.0216 92.1325 48.0235 92.1034L48.302 87.2267C48.3029 87.2089 48.3052 87.1716 48.3528 87.144C48.3725 87.1325 48.3899 87.1286 48.4044 87.1286C48.425 87.1286 48.4404 87.1364 48.4499 87.141L52.1676 89.0067C52.1854 89.0156 52.2184 89.0321 52.2236 89.0889C52.2288 89.1459 52.1993 89.1681 52.1833 89.1802Z" fill="#DADADA"/>
<path d="M93.7635 47.2542C92.9684 46.6389 91.9316 46.4812 90.9894 46.8322L87.0922 48.2851C86.1788 48.6256 85.5037 49.3961 85.2868 50.3464C85.0699 51.2966 85.3432 52.2839 86.0181 52.9871L89.4003 56.5111C89.9581 57.0922 90.7014 57.4023 91.4697 57.4023C91.7857 57.4023 92.1064 57.3498 92.4196 57.2422C93.4949 56.8729 94.2354 55.9411 94.3525 54.8103L94.8677 49.8335C94.9715 48.8336 94.5584 47.8694 93.7635 47.2542ZM92.0993 49.5468L91.584 54.5237C91.5809 54.5526 91.5774 54.5888 91.5154 54.6099C91.454 54.6309 91.4284 54.6049 91.4083 54.584L88.0261 51.06C88.0137 51.047 87.9877 51.0201 88 50.9663C88.0122 50.9125 88.0473 50.8995 88.0642 50.8932H88.0643L91.9615 49.4403C91.9706 49.4368 91.9835 49.4321 91.9997 49.4321C92.0166 49.4321 92.037 49.4375 92.06 49.4553C92.1053 49.4902 92.1014 49.527 92.0993 49.5468Z" fill="#DADADA"/>
<path d="M86.6053 44.4205C87.374 44.4205 87.9969 43.7975 87.9969 43.0289V42.9356C87.9969 42.1671 87.374 41.544 86.6053 41.544C85.8366 41.544 85.2137 42.1671 85.2137 42.9356V43.0289C85.2137 43.7975 85.8366 44.4205 86.6053 44.4205Z" fill="#DADADA"/>
<path d="M81.8837 57.3067V57.4C81.8837 58.1685 82.5065 58.7916 83.2753 58.7916C84.044 58.7916 84.6669 58.1685 84.6669 57.4V57.3067C84.6669 56.5381 84.044 55.9151 83.2753 55.9151C82.5065 55.9151 81.8837 56.538 81.8837 57.3067Z" fill="#DADADA"/>
<path d="M56.9759 83.3306C56.2072 83.3306 55.5843 83.9536 55.5843 84.7222V84.8155C55.5843 85.584 56.2072 86.2071 56.9759 86.2071C57.7446 86.2071 58.3675 85.584 58.3675 84.8155V84.7222C58.3675 83.9534 57.7446 83.3306 56.9759 83.3306Z" fill="#DADADA"/>
<path d="M36.1345 56.0746V55.9813C36.1345 55.2128 35.5116 54.5897 34.7429 54.5897C33.9741 54.5897 33.3513 55.2128 33.3513 55.9813V56.0746C33.3513 56.8432 33.9741 57.4662 34.7429 57.4662C35.5116 57.4662 36.1345 56.8432 36.1345 56.0746Z" fill="#DADADA"/>
<path d="M62.2019 38.8687C61.4332 38.8687 60.8103 39.4918 60.8103 40.2603V40.3537C60.8103 41.1222 61.4332 41.7453 62.2019 41.7453C62.9706 41.7453 63.5935 41.1222 63.5935 40.3537V40.2603C63.5935 39.4918 62.9704 38.8687 62.2019 38.8687Z" fill="#DADADA"/>
<path d="M10.0555 41.5908C9.28682 41.5908 8.66394 42.2138 8.66394 42.9824V43.0757C8.66394 43.8442 9.28682 44.4673 10.0555 44.4673C10.8243 44.4673 11.4471 43.8442 11.4471 43.0757V42.9824C11.4471 42.2138 10.8243 41.5908 10.0555 41.5908Z" fill="#DADADA"/>
<path d="M29.6797 17.9206V17.8273C29.6797 17.0588 29.0568 16.4357 28.2881 16.4357C27.5194 16.4357 26.8965 17.0588 26.8965 17.8273V17.9206C26.8965 18.6892 27.5194 19.3122 28.2881 19.3122C29.0568 19.3122 29.6797 18.6894 29.6797 17.9206Z" fill="#DADADA"/>
</svg>
