<svg width="16" height="16" viewBox="0 0 16 16" fill="none" xmlns="http://www.w3.org/2000/svg">
<path fill-rule="evenodd" clip-rule="evenodd" d="M7.99617 2.00001C7.81062 1.99924 7.62481 2.07525 7.49132 2.22802L2.8313 7.56136C2.58905 7.83862 2.61742 8.25978 2.89468 8.50203C3.17195 8.74429 3.5931 8.71592 3.83536 8.43865L7.33334 4.43526L7.33334 13.3333C7.33334 13.7015 7.63181 14 8 14C8.36819 14 8.66667 13.7015 8.66667 13.3333L8.66667 4.44666L12.1653 8.43936C12.4079 8.71628 12.8291 8.74406 13.106 8.50141C13.3829 8.25876 13.4107 7.83757 13.1681 7.56065L8.55175 2.29235C8.4318 2.1159 8.22944 2 8 2C7.99873 2 7.99745 2 7.99617 2.00001Z" fill="#EB2929"/>
</svg>
