<svg width="18" height="18" viewBox="0 0 18 18" fill="none" xmlns="http://www.w3.org/2000/svg">
<path d="M3.16669 8.99999C3.16669 8.77898 3.07889 8.56702 2.92261 8.41073C2.76633 8.25445 2.55437 8.16666 2.33335 8.16666H1.50002C1.27901 8.16666 1.06704 8.25445 0.910765 8.41073C0.754484 8.56702 0.666687 8.77898 0.666687 8.99999C0.666687 9.221 0.754484 9.43297 0.910765 9.58925C1.06704 9.74553 1.27901 9.83332 1.50002 9.83332H2.33335C2.55437 9.83332 2.76633 9.74553 2.92261 9.58925C3.07889 9.43297 3.16669 9.221 3.16669 8.99999ZM3.70002 13.1667L3.10835 13.7583C2.95314 13.9145 2.86603 14.1257 2.86603 14.3458C2.86603 14.566 2.95314 14.7772 3.10835 14.9333C3.26449 15.0885 3.4757 15.1757 3.69585 15.1757C3.91601 15.1757 4.12722 15.0885 4.28335 14.9333L4.87502 14.3417C5.01154 14.1822 5.08288 13.9772 5.07478 13.7674C5.06668 13.5577 4.97974 13.3588 4.83132 13.2104C4.68291 13.0619 4.48396 12.975 4.27423 12.9669C4.0645 12.9588 3.85944 13.0301 3.70002 13.1667ZM9.00002 3.16666C9.22103 3.16666 9.433 3.07886 9.58928 2.92258C9.74556 2.7663 9.83335 2.55434 9.83335 2.33332V1.49999C9.83335 1.27898 9.74556 1.06701 9.58928 0.910734C9.433 0.754454 9.22103 0.666656 9.00002 0.666656C8.77901 0.666656 8.56705 0.754454 8.41077 0.910734C8.25449 1.06701 8.16669 1.27898 8.16669 1.49999V2.33332C8.16669 2.55434 8.25449 2.7663 8.41077 2.92258C8.56705 3.07886 8.77901 3.16666 9.00002 3.16666ZM13.7167 5.11666C13.9353 5.11574 14.1448 5.02894 14.3 4.87499L14.8917 4.28332C14.9789 4.20862 15.0498 4.11669 15.0998 4.0133C15.1498 3.90991 15.1779 3.7973 15.1824 3.68253C15.1868 3.56777 15.1674 3.45333 15.1256 3.34639C15.0837 3.23945 15.0201 3.14233 14.9389 3.06111C14.8577 2.9799 14.7606 2.91635 14.6536 2.87446C14.5467 2.83256 14.4322 2.81323 14.3175 2.81766C14.2027 2.82209 14.0901 2.8502 13.9867 2.90022C13.8833 2.95024 13.7914 3.02109 13.7167 3.10832L13.1667 3.69999C13.0115 3.85613 12.9244 4.06734 12.9244 4.28749C12.9244 4.50764 13.0115 4.71885 13.1667 4.87499C13.3136 5.02113 13.5097 5.10728 13.7167 5.11666ZM3.71669 4.87499C3.8719 5.02894 4.0814 5.11574 4.30002 5.11666C4.40969 5.11729 4.51841 5.09627 4.61994 5.0548C4.72147 5.01333 4.81382 4.95222 4.89169 4.87499C5.0469 4.71885 5.13401 4.50764 5.13401 4.28749C5.13401 4.06734 5.0469 3.85613 4.89169 3.69999L4.30002 3.10832C4.22287 3.03008 4.13106 2.96779 4.02984 2.92503C3.92862 2.88226 3.81996 2.85985 3.71008 2.85908C3.6002 2.85831 3.49124 2.87918 3.38942 2.92052C3.28761 2.96185 3.19493 3.02284 3.11669 3.09999C3.03844 3.17714 2.97616 3.26895 2.93339 3.37017C2.89063 3.47139 2.86822 3.58005 2.86744 3.68993C2.86588 3.91185 2.95254 4.1253 3.10835 4.28332L3.71669 4.87499ZM16.5 8.16666H15.6667C15.4457 8.16666 15.2337 8.25445 15.0774 8.41073C14.9212 8.56702 14.8334 8.77898 14.8334 8.99999C14.8334 9.221 14.9212 9.43297 15.0774 9.58925C15.2337 9.74553 15.4457 9.83332 15.6667 9.83332H16.5C16.721 9.83332 16.933 9.74553 17.0893 9.58925C17.2456 9.43297 17.3334 9.221 17.3334 8.99999C17.3334 8.77898 17.2456 8.56702 17.0893 8.41073C16.933 8.25445 16.721 8.16666 16.5 8.16666ZM14.3 13.1667C14.1417 13.0786 13.959 13.0445 13.7796 13.0696C13.6002 13.0947 13.4338 13.1776 13.3057 13.3057C13.1776 13.4338 13.0947 13.6001 13.0696 13.7795C13.0446 13.959 13.0786 14.1417 13.1667 14.3L13.7584 14.8917C13.9145 15.0469 14.1257 15.134 14.3459 15.134C14.566 15.134 14.7772 15.0469 14.9334 14.8917C15.0886 14.7355 15.1757 14.5243 15.1757 14.3042C15.1757 14.084 15.0886 13.8728 14.9334 13.7167L14.3 13.1667ZM9.00002 4.41666C8.09352 4.41666 7.20738 4.68546 6.45366 5.18909C5.69993 5.69271 5.11247 6.40853 4.76557 7.24602C4.41867 8.08352 4.32791 9.00507 4.50475 9.89415C4.6816 10.7832 5.11812 11.5999 5.75911 12.2409C6.4001 12.8819 7.21678 13.3184 8.10586 13.4953C8.99494 13.6721 9.91649 13.5813 10.754 13.2344C11.5915 12.8875 12.3073 12.3001 12.8109 11.5464C13.3145 10.7926 13.5834 9.90649 13.5834 8.99999C13.5812 7.78509 13.0976 6.62058 12.2385 5.76152C11.3794 4.90245 10.2149 4.41886 9.00002 4.41666ZM9.00002 11.9167C8.42316 11.9167 7.85925 11.7456 7.37961 11.4251C6.89996 11.1046 6.52613 10.6491 6.30537 10.1161C6.08462 9.5832 6.02686 8.99675 6.1394 8.43098C6.25194 7.8652 6.52972 7.3455 6.93763 6.9376C7.34553 6.52969 7.86523 6.25191 8.43101 6.13937C8.99679 6.02683 9.58323 6.08459 10.1162 6.30534C10.6491 6.5261 11.1047 6.89993 11.4251 7.37958C11.7456 7.85922 11.9167 8.42313 11.9167 8.99999C11.9167 9.77354 11.6094 10.5154 11.0624 11.0624C10.5154 11.6094 9.77357 11.9167 9.00002 11.9167ZM9.00002 14.8333C8.77901 14.8333 8.56705 14.9211 8.41077 15.0774C8.25449 15.2337 8.16669 15.4456 8.16669 15.6667V16.5C8.16669 16.721 8.25449 16.933 8.41077 17.0892C8.56705 17.2455 8.77901 17.3333 9.00002 17.3333C9.22103 17.3333 9.433 17.2455 9.58928 17.0892C9.74556 16.933 9.83335 16.721 9.83335 16.5V15.6667C9.83335 15.4456 9.74556 15.2337 9.58928 15.0774C9.433 14.9211 9.22103 14.8333 9.00002 14.8333Z" fill="black"/>
</svg>
